<?xml version="1.0" encoding="utf-8"?>
<svg viewBox="0 0 1024 1024" xmlns="http://www.w3.org/2000/svg" xmlns:bx="https://boxy-svg.com">
  <defs>
    <style bx:fonts="Black Ops One">@import url(https://fonts.googleapis.com/css2?family=Black+Ops+One%3Aital%2Cwght%400%2C400&amp;display=swap);</style>
  </defs>
  <path d="M0 0L1024 0L1024 1024L0 1024L0 0Z" style="fill: none;"/>
  <path d="M367.534 743.628C373.687 743.263 379.258 743.532 384.851 746.521Q385.408 746.817 385.95 747.14Q386.491 747.464 387.016 747.814Q387.541 748.164 388.047 748.54Q388.554 748.916 389.041 749.317Q389.529 749.717 389.995 750.142Q390.462 750.566 390.907 751.014Q391.351 751.461 391.773 751.93Q392.195 752.399 392.593 752.888Q392.991 753.378 393.364 753.887Q393.737 754.395 394.084 754.922Q394.432 755.449 394.752 755.992Q395.072 756.536 395.365 757.094Q395.658 757.653 395.923 758.226Q396.187 758.798 396.423 759.384Q396.659 759.969 396.865 760.565Q397.071 761.161 397.247 761.767Q397.427 762.376 397.576 762.993Q397.725 763.61 397.842 764.234Q397.959 764.858 398.044 765.487Q398.128 766.116 398.181 766.749Q398.233 767.381 398.253 768.016Q398.273 768.65 398.26 769.285Q398.247 769.92 398.202 770.553Q398.157 771.186 398.079 771.816Q398.001 772.446 397.891 773.072Q397.781 773.697 397.639 774.316Q397.497 774.934 397.324 775.545Q397.15 776.156 396.946 776.757Q396.741 777.357 396.506 777.947Q396.271 778.537 396.006 779.114Q395.741 779.69 395.446 780.253Q395.152 780.815 394.829 781.362C391.069 787.71 385.336 791.033 378.377 792.806C371.628 794.088 364.682 793.654 358.683 789.966Q358.139 789.625 357.612 789.257Q357.085 788.89 356.576 788.498Q356.068 788.105 355.579 787.688Q355.09 787.271 354.623 786.831Q354.155 786.391 353.709 785.928Q353.263 785.466 352.84 784.982Q352.418 784.499 352.019 783.995Q351.62 783.491 351.247 782.969Q350.873 782.446 350.525 781.906Q350.178 781.366 349.857 780.81Q349.535 780.253 349.242 779.682Q348.948 779.111 348.683 778.526Q348.418 777.941 348.181 777.343Q347.945 776.746 347.738 776.138Q347.53 775.53 347.353 774.913Q347.176 774.295 347.029 773.67Q346.886 773.047 346.775 772.418Q346.664 771.789 346.585 771.155Q346.505 770.521 346.459 769.884Q346.412 769.247 346.397 768.608Q346.383 767.97 346.4 767.331Q346.418 766.692 346.468 766.056Q346.518 765.419 346.601 764.785Q346.683 764.152 346.798 763.523Q346.912 762.895 347.058 762.273Q347.204 761.651 347.381 761.037Q347.559 760.423 347.767 759.819Q347.975 759.215 348.214 758.623Q348.452 758.03 348.721 757.45Q348.989 756.871 349.286 756.305Q349.584 755.74 349.909 755.19Q350.235 754.64 350.588 754.108C354.709 747.927 360.43 744.985 367.534 743.628Z" style="fill: none;"/>
  <path fill="#EA7D4C" d="M740.802 394.234C752.383 398.137 762.481 403.81 771.233 412.444C786.791 427.793 792.82 445.543 792.996 466.95L793.048 549.35C793.056 568.084 794.938 598.12 790.515 615.263C787.962 625.161 781.615 635.073 774.457 642.279C766.42 650.37 756.985 656.083 745.884 658.776C730.531 662.498 703.481 661.061 686.784 661.077L594.625 660.999C577.894 661.054 561.203 660.389 544.462 660.693C554.946 657.575 565.832 655.768 576.325 652.63C609.79 642.622 638.672 625.083 665.321 602.776C673.435 602.264 681.665 602.574 689.796 602.582L730.1 602.715C729.717 582.543 729.951 562.345 729.693 542.167C729.594 534.438 730.224 525.978 729.255 518.339C729.082 516.978 728.64 515.677 728.163 514.397C731.736 503.035 735.573 491.645 738.222 480.027C744.243 453.624 745.882 420.917 740.802 394.234Z"/>
  <path fill="#EA7D4C" d="M298.868 206.704C303.37 206.026 308.608 206.468 313.176 206.479L341.347 206.565L443.855 206.883C434.286 212.008 423.451 215.222 413.601 219.941C384.17 234.042 366.419 249.274 343.078 271.454Q320.08 271.244 297.082 271.388Q297.342 297.017 297.159 322.647C297.135 331.436 297.898 340.984 296.641 349.658C295.681 356.284 292.652 362.856 290.918 369.352C287.69 381.443 285.701 393.682 284.432 406.119C280.57 432.982 285.298 464.02 291.407 490.25C280.868 486.007 270.509 481.037 261.594 473.924C244.574 460.341 232.646 440.435 230.352 418.573C229.284 408.398 229.606 397.973 229.605 387.75L229.636 342.977L229.588 299.123C229.579 287.211 228.924 274.681 231.276 262.955C233.38 252.473 238.579 242.073 245.312 233.802C258.69 217.369 278.187 208.867 298.868 206.704Z"/>
  <path fill="#51C7C4" d="M505.611 207.722Q508.182 207.647 510.754 207.633Q513.326 207.619 515.898 207.666Q518.469 207.713 521.039 207.821Q523.609 207.929 526.176 208.099Q528.742 208.268 531.304 208.498Q533.866 208.728 536.421 209.019Q538.977 209.31 541.525 209.661Q544.073 210.013 546.612 210.425Q549.151 210.837 551.679 211.309Q554.208 211.782 556.724 212.314Q559.24 212.846 561.744 213.438Q564.247 214.03 566.735 214.681Q569.223 215.332 571.695 216.042Q574.168 216.752 576.622 217.521Q579.077 218.289 581.512 219.116Q583.948 219.943 586.363 220.827Q588.779 221.711 591.172 222.653Q593.566 223.594 595.936 224.592Q598.307 225.59 600.653 226.645Q602.999 227.699 605.32 228.808Q607.64 229.918 609.934 231.082Q612.227 232.247 614.492 233.465Q616.757 234.684 618.993 235.956Q621.229 237.228 623.433 238.553Q625.638 239.878 627.811 241.254Q629.983 242.631 632.122 244.059Q634.262 245.487 636.366 246.966Q638.471 248.444 640.54 249.972Q642.609 251.5 644.641 253.077Q646.673 254.654 648.668 256.279Q650.662 257.903 652.616 259.575Q654.571 261.246 656.486 262.964Q658.533 264.791 660.535 266.666Q662.537 268.542 664.493 270.465Q666.449 272.389 668.358 274.359Q670.267 276.33 672.128 278.346Q673.989 280.362 675.8 282.422Q677.611 284.482 679.372 286.586Q681.133 288.69 682.843 290.835Q684.552 292.981 686.21 295.168Q687.867 297.354 689.47 299.58Q691.074 301.806 692.623 304.07Q694.173 306.334 695.667 308.635Q697.161 310.936 698.599 313.272Q700.036 315.609 701.417 317.979Q702.798 320.35 704.122 322.753Q705.445 325.156 706.709 327.591Q707.974 330.026 709.179 332.49Q710.384 334.955 711.529 337.448Q712.675 339.941 713.759 342.461Q714.844 344.98 715.867 347.526Q716.89 350.071 717.852 352.641Q718.813 355.21 719.712 357.802Q720.611 360.394 721.446 363.007Q722.282 365.62 723.055 368.253Q723.827 370.885 724.535 373.536Q725.244 376.186 725.888 378.853Q726.531 381.52 727.111 384.201Q727.69 386.883 728.204 389.578Q728.718 392.273 729.167 394.979Q729.616 397.686 729.999 400.402Q730.382 403.119 730.699 405.844Q731.017 408.569 731.268 411.301Q731.519 414.033 731.704 416.77C735.099 473.723 715.824 532.361 677.802 575.078Q676.252 576.846 674.664 578.581Q673.077 580.316 671.452 582.017Q669.828 583.718 668.168 585.383Q666.508 587.049 664.813 588.679Q663.118 590.309 661.388 591.902Q659.659 593.496 657.896 595.052Q656.133 596.608 654.337 598.127Q652.541 599.645 650.713 601.125Q648.886 602.604 647.027 604.045Q645.168 605.485 643.279 606.886Q641.39 608.286 639.471 609.646Q637.552 611.006 635.605 612.325Q633.658 613.644 631.683 614.921Q629.709 616.198 627.707 617.432Q625.706 618.667 623.678 619.858Q621.651 621.05 619.599 622.198Q617.546 623.346 615.47 624.451Q613.394 625.555 611.294 626.615Q609.195 627.674 607.074 628.689Q604.952 629.704 602.81 630.673Q600.667 631.643 598.504 632.566Q596.342 633.49 594.16 634.367Q591.978 635.244 589.778 636.074Q587.577 636.905 585.36 637.688Q583.143 638.471 580.909 639.207Q578.676 639.943 576.427 640.632Q574.178 641.32 571.916 641.96Q569.653 642.6 567.377 643.192Q565.101 643.784 562.813 644.327Q560.525 644.87 558.225 645.364Q555.926 645.859 553.617 646.304Q551.308 646.749 548.99 647.145C539.217 648.782 529.38 649.352 519.499 649.938C475.759 650.543 436.681 640.255 399.407 617.238C388.885 610.74 378.698 603.711 369.474 595.445C334.691 564.276 310.592 525.391 299.532 479.963C296.555 467.731 294.244 455.495 293.59 442.898C290.528 383.879 309.525 324.646 349.357 280.603C391.831 233.64 442.738 210.882 505.611 207.722Z"/>
  <path fill="#1A3A4B" d="M503.623 264.709C503.707 264.699 503.79 264.685 503.874 264.68C545.581 261.722 588.793 277.232 619.863 305.15Q621.397 306.52 622.897 307.928Q624.397 309.336 625.862 310.78Q627.327 312.225 628.756 313.704Q630.185 315.184 631.577 316.699Q632.969 318.214 634.324 319.762Q635.678 321.31 636.994 322.892Q638.31 324.473 639.586 326.086Q640.863 327.7 642.099 329.344Q643.336 330.988 644.531 332.662Q645.727 334.336 646.881 336.039Q648.035 337.742 649.147 339.473Q650.258 341.204 651.327 342.962Q652.396 344.72 653.421 346.503Q654.446 348.287 655.427 350.095Q656.408 351.903 657.344 353.735Q658.281 355.567 659.171 357.421Q660.062 359.275 660.907 361.151Q661.752 363.027 662.55 364.923Q663.349 366.819 664.1 368.734Q664.852 370.649 665.556 372.582Q666.26 374.515 666.916 376.464Q667.573 378.414 668.181 380.379Q668.789 382.345 669.349 384.324Q669.908 386.304 670.419 388.297Q670.93 390.289 671.391 392.294Q671.853 394.299 672.265 396.314Q672.677 398.33 673.039 400.355Q673.401 402.38 673.713 404.413Q674.026 406.447 674.288 408.487Q674.55 410.528 674.762 412.574Q674.973 414.62 675.135 416.671Q675.296 418.722 675.407 420.776Q675.508 422.749 675.561 424.723Q675.615 426.698 675.619 428.673Q675.624 430.648 675.581 432.623Q675.537 434.598 675.446 436.571Q675.354 438.544 675.214 440.514Q675.074 442.484 674.886 444.451Q674.698 446.417 674.463 448.378Q674.227 450.339 673.943 452.294Q673.659 454.249 673.327 456.196Q672.996 458.143 672.617 460.082Q672.238 462.02 671.811 463.949Q671.385 465.877 670.912 467.795Q670.438 469.713 669.918 471.618Q669.398 473.524 668.832 475.416Q668.266 477.308 667.653 479.186Q667.041 481.064 666.382 482.927Q665.724 484.789 665.02 486.635Q664.317 488.48 663.568 490.308Q662.82 492.136 662.027 493.945Q661.234 495.754 660.397 497.543Q659.56 499.333 658.68 501.101Q657.799 502.869 656.876 504.615Q655.953 506.361 654.987 508.084Q654.021 509.807 653.014 511.506Q652.006 513.205 650.957 514.879Q649.909 516.553 648.819 518.201Q647.73 519.848 646.601 521.469Q645.471 523.089 644.303 524.682Q643.134 526.274 641.927 527.838Q640.72 529.401 639.475 530.935Q638.23 532.468 636.948 533.971Q635.665 535.473 634.347 536.944C605.3 569.02 564.871 591.353 521.125 593.526C480.715 595.982 438.696 581.406 407.994 555.095C374.349 526.261 351.674 483.247 348.45 439.004Q348.31 437.015 348.219 435.022Q348.128 433.03 348.086 431.036Q348.044 429.042 348.052 427.048Q348.06 425.053 348.118 423.06Q348.175 421.066 348.282 419.075Q348.389 417.083 348.546 415.095Q348.702 413.107 348.908 411.123Q349.114 409.14 349.368 407.162Q349.623 405.184 349.927 403.213Q350.231 401.242 350.584 399.279Q350.937 397.316 351.338 395.362Q351.74 393.409 352.189 391.466Q352.639 389.523 353.137 387.591Q353.635 385.66 354.181 383.742Q354.726 381.824 355.319 379.92Q355.912 378.016 356.553 376.127Q357.193 374.238 357.88 372.366Q358.567 370.493 359.3 368.639Q360.033 366.784 360.812 364.948Q361.591 363.112 362.416 361.296Q363.24 359.48 364.109 357.685Q364.978 355.89 365.892 354.117Q366.805 352.344 367.763 350.595Q368.72 348.845 369.72 347.12Q370.721 345.395 371.763 343.695Q372.806 341.995 373.891 340.321Q374.976 338.648 376.102 337.002Q377.228 335.356 378.395 333.738Q379.561 332.12 380.767 330.532Q381.974 328.944 383.219 327.386Q384.464 325.829 385.748 324.302Q387.032 322.776 388.353 321.282Q389.703 319.725 391.092 318.202Q392.481 316.68 393.908 315.192Q395.334 313.705 396.798 312.254Q398.261 310.802 399.76 309.388Q401.259 307.974 402.793 306.597Q404.327 305.221 405.895 303.883Q407.463 302.546 409.064 301.248Q410.665 299.95 412.298 298.692Q413.93 297.435 415.594 296.218Q417.258 295.002 418.952 293.828Q420.645 292.653 422.368 291.522Q424.09 290.39 425.84 289.302Q427.591 288.214 429.368 287.17Q431.144 286.125 432.947 285.126Q434.749 284.127 436.576 283.173Q438.403 282.219 440.253 281.311Q442.103 280.403 443.976 279.541Q445.848 278.68 447.741 277.865Q449.634 277.051 451.547 276.284Q453.46 275.517 455.392 274.798Q457.323 274.08 459.272 273.409Q461.221 272.739 463.186 272.118Q465.151 271.497 467.131 270.925Q469.111 270.353 471.105 269.83Q473.099 269.308 475.105 268.836Q477.111 268.363 479.128 267.941Q481.146 267.519 483.173 267.148Q485.2 266.777 487.236 266.456Q489.272 266.135 491.315 265.866Q493.358 265.596 495.408 265.378Q497.457 265.159 499.511 264.992Q501.565 264.825 503.623 264.709Z"/>
  <path fill="#51C7C4" d="M506.071 553.225C509.504 552.972 515.499 552.122 518.587 553.821C520.078 558.238 519.788 571.047 519.188 575.811L518.423 576.364Q511.462 576.423 504.501 576.345C504.46 571.282 503.525 559.051 504.733 554.615C505.002 553.628 505.246 553.731 506.071 553.225Z"/>
  <path fill="#51C7C4" d="M639.888 424.187C645.567 423.999 657.028 422.51 662.019 424.563C663.535 425.187 664.748 426.326 665.274 427.909C666.234 430.795 664.95 434.286 663.713 436.877C658.586 438.782 645.572 437.724 639.476 437.69C639.406 433.943 638.489 427.558 639.888 424.187Z"/>
  <path fill="#51C7C4" d="M506.516 279.616C508.744 279.521 511.019 279.365 513.247 279.468C514.529 279.527 516.811 279.823 517.592 280.975C520.135 284.725 519.243 296.228 518.712 300.635C518.466 302.672 518.023 303.288 516.435 304.559C516.124 304.623 515.814 304.691 515.502 304.75C512.373 305.344 508.191 305.881 505.448 304.03C503.37 300.785 504.349 291.638 504.445 287.626C504.518 284.533 504.131 281.889 506.516 279.616Z"/>
  <path fill="#51C7C4" d="M367.276 423.767Q376.516 423.452 385.756 423.755C385.92 428.755 385.988 433.697 385.81 438.702C382.214 438.86 378.569 438.691 374.968 438.637C370.752 438.545 366.49 438.983 362.298 438.761C360.46 438.663 358.369 438.309 357.21 436.71C355 433.66 356.147 427.715 356.395 424.11C360.003 423.865 363.659 423.869 367.276 423.767Z"/>
  <path fill="#FDFDFD" d="M491.871 398.289L491.712 366.358C491.706 359.731 491.068 352.117 492.624 345.64C493.441 342.239 494.903 339.301 497.391 336.809C501.215 332.979 507.609 330.233 513.072 330.372Q513.612 330.387 514.15 330.429Q514.688 330.472 515.224 330.54Q515.76 330.609 516.291 330.704Q516.823 330.799 517.349 330.92Q517.875 331.042 518.395 331.189Q518.914 331.336 519.426 331.508Q519.937 331.681 520.44 331.879Q520.942 332.076 521.434 332.299Q521.926 332.521 522.407 332.768Q522.887 333.014 523.355 333.284Q523.823 333.554 524.276 333.846Q524.73 334.139 525.169 334.454Q525.608 334.768 526.03 335.105Q526.453 335.441 526.858 335.797Q527.264 336.154 527.651 336.53Q528.039 336.906 528.407 337.301C531.154 340.268 532.652 343.542 533.377 347.488C535.101 356.877 534.03 370.649 534.029 380.457L534.127 441.687C528.198 436.291 493.442 402.455 491.871 398.289Z"/>
  <path fill="#EA7D4C" d="M534.127 441.687C537.104 445.937 544.562 452.249 548.444 456.1L586.309 494.409C592.919 501.171 605.774 512.254 609.801 520.449C612.11 525.15 612.082 529.749 610.374 534.664Q610.211 535.147 610.025 535.621Q609.838 536.095 609.629 536.559Q609.419 537.024 609.187 537.477Q608.954 537.93 608.7 538.372Q608.446 538.813 608.17 539.242Q607.894 539.67 607.597 540.084Q607.301 540.498 606.984 540.898Q606.667 541.297 606.331 541.68Q605.995 542.062 605.641 542.428Q605.286 542.794 604.914 543.142Q604.542 543.49 604.153 543.819Q603.764 544.149 603.36 544.458Q602.955 544.768 602.536 545.057Q602.116 545.346 601.683 545.615Q601.25 545.883 600.804 546.129Q600.358 546.376 599.901 546.6C594.621 549.126 588.695 548.963 583.329 546.778C579.997 545.421 576.423 541.52 573.87 539.035C569.441 534.723 565.344 530.069 560.996 525.675L502.383 466.214L443.456 407.196C428.686 392.469 413.618 377.906 399.378 362.673C396.907 360.03 394.093 357.05 392.865 353.592Q392.576 352.753 392.37 351.889Q392.164 351.026 392.043 350.146Q391.923 349.267 391.888 348.379Q391.854 347.492 391.907 346.606Q391.96 345.72 392.099 344.843Q392.238 343.966 392.462 343.107Q392.686 342.248 392.992 341.415Q393.299 340.582 393.686 339.783C396.148 334.719 400.998 330.35 406.416 328.719C411.055 327.324 416.89 327.592 421.253 329.79C428.151 333.264 441.911 348.56 448.047 354.709L481.702 388.504C483.72 390.535 489.334 397.292 491.444 398.172C491.58 398.229 491.728 398.25 491.871 398.289C493.442 402.455 528.198 436.291 534.127 441.687Z"/>
  <text style="fill: rgb(234, 125, 76); font-family: 'Black Ops One'; font-size: 28px; font-weight: 700;" transform="matrix(4.6063947677612305, 0, 0, 4.363186836242676, -1802.632080078125, -3058.003173828125)" x="509.833" y="887.668">LOG</text>
  <g transform="matrix(1, 0, 0, 1, -5.539854049682617, -0.000004000000444648322)">
    <text style="fill: rgb(81, 199, 196); font-family: 'Black Ops One'; font-size: 28px; font-weight: 700;" transform="matrix(4.606395, 0, 0, 4.363187, -2140.864258, -3058.157471)" x="509.833" y="887.668">NOTI</text>
  </g>
</svg>